<?xml version="1.0" encoding="utf-8"?>
<!-- Generator: Adobe Illustrator 17.1.0, SVG Export Plug-In . SVG Version: 6.00 Build 0)  -->
<!DOCTYPE svg PUBLIC "-//W3C//DTD SVG 1.1//EN" "http://www.w3.org/Graphics/SVG/1.1/DTD/svg11.dtd">
<svg version="1.1" id="Layer_1" xmlns="http://www.w3.org/2000/svg" xmlns:xlink="http://www.w3.org/1999/xlink" x="0px" y="0px"
	 viewBox="0 0 64.6 78.8" enable-background="new 0 0 64.6 78.8" xml:space="preserve">
<g>
	<path fill="#EAE5DF" d="M15.4,37.7v13.9c0,9,5.3,17.1,13.5,20.7c3.5,1.5,6.6,3.5,9.2,5.8c2.7-2.3,12.7-7.3,9.2-5.8
		c-0.1,0,13.5-40.5,13.5-20.7V37.7H15.4z"/>
	<path fill="#438967" d="M61.9,11.2h-2.5h-0.2h-2.5h-3.9h-2.5h-0.2h-2.5h-3.9h-2.5h-0.2h-2.5H35c0.2-3.3,2.9-5.9,6.2-5.9V0
		c-6.2,0-11.3,5-11.5,11.2h-3.8h-2.5h-0.2h-2.5h-3.9h-2.5h-0.2h-2.5H7.8H5.3H5.2H2.7H0V15v1.5v1V19v5v1.5v1V28v3.8h2.7h2.2v13.9
		c0,10.8,6.4,20.6,16.2,25c3.7,1.6,6.9,3.8,9.5,6.4l1.6,1.6l1.6-1.6c2.6-2.6,5.8-4.7,9.5-6.4c9.9-4.4,16.2-14.2,16.2-25V31.8h2.2
		h2.7V28v-1.5v-1V24v-5v-1.5v-1V15v-3.8H61.9z M11,26l3.3-3.3l3.3,3.3l-1.2,1.2h-4.2L11,26z M20,26l3.3-3.3l3.3,3.3l-1.2,1.2h-4.2
		L20,26z M29,26l3.3-3.3l3.3,3.3l-1.2,1.2h-4.2L29,26z M38,26l3.3-3.3l3.3,3.3l-1.2,1.2h-4.2L38,26z M47,26l3.3-3.3l3.3,3.3
		l-1.2,1.2h-4.2L47,26z M51.6,21.5l3.3-3.3l3.3,3.3l-3.3,3.3L51.6,21.5z M48.2,15.8h4.2l1.2,1.2l-3.3,3.3L47,17L48.2,15.8z
		 M49.1,21.5l-3.3,3.3l-3.3-3.3l3.3-3.3L49.1,21.5z M39.2,15.8h4.2l1.2,1.2l-3.3,3.3L38,17L39.2,15.8z M40.1,21.5l-3.3,3.3l-3.3-3.3
		l3.3-3.3L40.1,21.5z M30.2,15.8h4.2l1.2,1.2l-3.3,3.3L29,17L30.2,15.8z M31.1,21.5l-3.3,3.3l-3.3-3.3l3.3-3.3L31.1,21.5z
		 M21.2,15.8h4.2l1.2,1.2l-3.3,3.3L20,17L21.2,15.8z M22,21.5l-3.3,3.3l-3.3-3.3l3.3-3.3L22,21.5z M12.2,15.8h4.2l1.2,1.2l-3.3,3.3
		L11,17L12.2,15.8z M13,21.5l-3.3,3.3l-3.3-3.3l3.3-3.3L13,21.5z M4.7,15.8h2.7L8.5,17l-3.3,3.3l-0.6-0.6V15.8z M4.7,23.3l0.6-0.6
		L8.5,26l-1.2,1.2H4.7V23.3z M55,45.8c0,9-5.3,17.1-13.5,20.8c-3.5,1.5-6.6,3.5-9.2,5.8c-2.7-2.3-5.8-4.3-9.2-5.8
		C14.9,62.9,9.6,54.7,9.6,45.8V31.9H55V45.8z M59.9,27.2h-2.7L56.1,26l3.3-3.3l0.6,0.6V27.2z M59.9,19.7l-0.6,0.6L56.1,17l1.2-1.2
		h2.7V19.7z"/>
</g>
</svg>
