<?xml version="1.0" encoding="utf-8"?>
<!-- Generator: Adobe Illustrator 17.1.0, SVG Export Plug-In . SVG Version: 6.00 Build 0)  -->
<!DOCTYPE svg PUBLIC "-//W3C//DTD SVG 1.1//EN" "http://www.w3.org/Graphics/SVG/1.1/DTD/svg11.dtd">
<svg version="1.1" id="Layer_1" xmlns="http://www.w3.org/2000/svg" xmlns:xlink="http://www.w3.org/1999/xlink" x="0px" y="0px"
	 viewBox="0 0 56 77.7" enable-background="new 0 0 56 77.7" xml:space="preserve">
<path fill="#D76433" d="M56,28C56,12.5,43.5,0,28,0S0,12.5,0,28c0,11.9,7.4,22,17.9,26.1L28,77.7c0,0,7-16.3,10.1-23.6
	C48.6,50,56,39.9,56,28z"/>
<path fill="#FFFFFF" d="M41.2,18.1h-1.1H40h-1.1h-1.7h-1.1H36h-1.1h-1.7h-1.1H32h-1.1h-1.7c0.1-1.5,1.3-2.6,2.8-2.6v-2.3
	c-2.8,0-5,2.2-5.1,5h-1.7H24h-0.1h-1.1h-1.7H20h-0.1h-1.1h-1.7H16h-0.1h-1.1h-1.2v1.7v0.7v0.4v0.7v2.2v0.7v0.4v0.7v1.7h1.2h1v6.2
	c0,4.8,2.8,9.2,7.2,11.2c1.6,0.7,3.1,1.7,4.2,2.8l0.7,0.7l0.7-0.7c1.2-1.2,2.6-2.1,4.2-2.8c4.4-2,7.2-6.3,7.2-11.2v-6.2h1h1.2v-1.7
	v-0.7v-0.4v-0.7v-2.2v-0.7v-0.4v-0.7v-1.7H41.2z M18.5,24.7l1.5-1.5l1.5,1.5l-0.5,0.5H19L18.5,24.7z M22.5,24.7l1.5-1.5l1.5,1.5
	l-0.5,0.5H23L22.5,24.7z M26.5,24.7l1.5-1.5l1.5,1.5l-0.5,0.5h-1.9L26.5,24.7z M30.6,24.7l1.5-1.5l1.5,1.5L33,25.2h-1.9L30.6,24.7z
	 M34.6,24.7l1.5-1.5l1.5,1.5L37,25.2h-1.9L34.6,24.7z M36.6,22.7l1.5-1.5l1.5,1.5L38,24.2L36.6,22.7z M35.1,20.2H37l0.5,0.5L36,22.1
	l-1.5-1.5L35.1,20.2z M35.5,22.7L34,24.2l-1.5-1.5l1.5-1.5L35.5,22.7z M31.1,20.2H33l0.5,0.5L32,22.1l-1.5-1.5L31.1,20.2z
	 M31.5,22.7L30,24.2l-1.5-1.5l1.5-1.5L31.5,22.7z M27.1,20.2h1.9l0.5,0.5L28,22.1l-1.5-1.5L27.1,20.2z M27.4,22.7L26,24.2l-1.5-1.5
	l1.5-1.5L27.4,22.7z M23,20.2h1.9l0.5,0.5L24,22.1l-1.5-1.5L23,20.2z M23.4,22.7L22,24.2l-1.5-1.5l1.5-1.5L23.4,22.7z M19,20.2h1.9
	l0.5,0.5L20,22.1l-1.5-1.5L19,20.2z M19.4,22.7L18,24.2l-1.5-1.5l1.5-1.5L19.4,22.7z M15.7,20.2h1.2l0.5,0.5l-1.5,1.5l-0.3-0.3V20.2
	z M15.7,23.5l0.3-0.3l1.5,1.5l-0.5,0.5h-1.2V23.5z M38.1,33.5c0,4-2.4,7.6-6,9.3c-1.5,0.7-2.9,1.5-4.1,2.6c-1.2-1-2.6-1.9-4.1-2.6
	c-3.6-1.6-6-5.3-6-9.3v-6.2h20.2V33.5z M40.3,25.2h-1.2l-0.5-0.5l1.5-1.5l0.3,0.3V25.2z M40.3,21.9l-0.3,0.3l-1.5-1.5l0.5-0.5h1.2
	V21.9z"/>
</svg>
